<mxfile host="Electron" modified="2023-12-03T22:57:34.570Z" agent="Mozilla/5.0 (Macintosh; Intel Mac OS X 10_15_7) AppleWebKit/537.36 (KHTML, like Gecko) draw.io/22.1.2 Chrome/114.0.5735.289 Electron/25.9.4 Safari/537.36" etag="FBG0deDi-xguGu4c-9Il" version="22.1.2" type="device">
  <diagram name="Strona-1" id="MSKjf9PT-Edn4RTgWR14">
    <mxGraphModel dx="851" dy="788" grid="1" gridSize="10" guides="1" tooltips="1" connect="1" arrows="1" fold="1" page="1" pageScale="1" pageWidth="827" pageHeight="1169" math="0" shadow="0">
      <root>
        <mxCell id="0" />
        <mxCell id="1" parent="0" />
        <mxCell id="p0aysY3lliT1-a4iwBMf-4" style="edgeStyle=orthogonalEdgeStyle;rounded=0;orthogonalLoop=1;jettySize=auto;html=1;entryX=0.5;entryY=0;entryDx=0;entryDy=0;fillColor=#ffe6cc;strokeColor=#D79B00;endArrow=open;endFill=0;" parent="1" source="p0aysY3lliT1-a4iwBMf-1" target="p0aysY3lliT1-a4iwBMf-3" edge="1">
          <mxGeometry relative="1" as="geometry" />
        </mxCell>
        <mxCell id="p0aysY3lliT1-a4iwBMf-1" value="" style="ellipse;fillColor=strokeColor;html=1;" parent="1" vertex="1">
          <mxGeometry x="384" y="160" width="30" height="30" as="geometry" />
        </mxCell>
        <mxCell id="p0aysY3lliT1-a4iwBMf-6" style="edgeStyle=orthogonalEdgeStyle;rounded=0;orthogonalLoop=1;jettySize=auto;html=1;fillColor=#d5e8d4;strokeColor=#D79B00;endArrow=open;endFill=0;" parent="1" source="p0aysY3lliT1-a4iwBMf-3" target="p0aysY3lliT1-a4iwBMf-5" edge="1">
          <mxGeometry relative="1" as="geometry" />
        </mxCell>
        <mxCell id="p0aysY3lliT1-a4iwBMf-3" value="przycisk powitalnego ekranu" style="rounded=1;whiteSpace=wrap;html=1;fillColor=#dae8fc;strokeColor=#6c8ebf;" parent="1" vertex="1">
          <mxGeometry x="329" y="230" width="140" height="30" as="geometry" />
        </mxCell>
        <mxCell id="p0aysY3lliT1-a4iwBMf-8" style="edgeStyle=orthogonalEdgeStyle;rounded=0;orthogonalLoop=1;jettySize=auto;html=1;entryX=0.5;entryY=0;entryDx=0;entryDy=0;fillColor=#d5e8d4;strokeColor=#D79B00;endArrow=open;endFill=0;" parent="1" source="p0aysY3lliT1-a4iwBMf-5" target="p0aysY3lliT1-a4iwBMf-7" edge="1">
          <mxGeometry relative="1" as="geometry" />
        </mxCell>
        <mxCell id="p0aysY3lliT1-a4iwBMf-5" value="kafelek odczyty LiDAR" style="rounded=1;whiteSpace=wrap;html=1;fillColor=#dae8fc;strokeColor=#6c8ebf;" parent="1" vertex="1">
          <mxGeometry x="329" y="300" width="140" height="30" as="geometry" />
        </mxCell>
        <mxCell id="9E5FCg3P2HuE8xPcznS2-3" style="edgeStyle=orthogonalEdgeStyle;rounded=0;orthogonalLoop=1;jettySize=auto;html=1;entryX=0.5;entryY=0;entryDx=0;entryDy=0;endArrow=open;endFill=0;strokeColor=#D79B00;" edge="1" parent="1" source="p0aysY3lliT1-a4iwBMf-7" target="9E5FCg3P2HuE8xPcznS2-1">
          <mxGeometry relative="1" as="geometry" />
        </mxCell>
        <mxCell id="9E5FCg3P2HuE8xPcznS2-4" style="edgeStyle=orthogonalEdgeStyle;rounded=0;orthogonalLoop=1;jettySize=auto;html=1;entryX=0;entryY=0.5;entryDx=0;entryDy=0;endArrow=open;endFill=0;strokeColor=#D79B00;" edge="1" parent="1" source="p0aysY3lliT1-a4iwBMf-7" target="p0aysY3lliT1-a4iwBMf-9">
          <mxGeometry relative="1" as="geometry" />
        </mxCell>
        <mxCell id="9E5FCg3P2HuE8xPcznS2-5" style="edgeStyle=orthogonalEdgeStyle;rounded=0;orthogonalLoop=1;jettySize=auto;html=1;entryX=1;entryY=0.5;entryDx=0;entryDy=0;strokeColor=#D79B00;endArrow=open;endFill=0;" edge="1" parent="1" source="p0aysY3lliT1-a4iwBMf-7" target="p0aysY3lliT1-a4iwBMf-21">
          <mxGeometry relative="1" as="geometry" />
        </mxCell>
        <mxCell id="p0aysY3lliT1-a4iwBMf-7" value="Jaki widok?" style="rhombus;fillColor=#dae8fc;strokeColor=#6c8ebf;" parent="1" vertex="1">
          <mxGeometry x="336.88" y="375" width="124.25" height="60" as="geometry" />
        </mxCell>
        <mxCell id="9E5FCg3P2HuE8xPcznS2-9" style="edgeStyle=orthogonalEdgeStyle;rounded=0;orthogonalLoop=1;jettySize=auto;html=1;entryX=1;entryY=0.5;entryDx=0;entryDy=0;strokeColor=#D79B00;endArrow=open;endFill=0;" edge="1" parent="1" source="p0aysY3lliT1-a4iwBMf-9" target="p0aysY3lliT1-a4iwBMf-15">
          <mxGeometry relative="1" as="geometry">
            <Array as="points">
              <mxPoint x="600" y="575" />
            </Array>
          </mxGeometry>
        </mxCell>
        <mxCell id="p0aysY3lliT1-a4iwBMf-9" value="Wizualizacja chmury punktów" style="rounded=1;whiteSpace=wrap;html=1;fillColor=#dae8fc;strokeColor=#6c8ebf;" parent="1" vertex="1">
          <mxGeometry x="525.01" y="390" width="140" height="30" as="geometry" />
        </mxCell>
        <mxCell id="p0aysY3lliT1-a4iwBMf-12" value="&lt;font color=&quot;#d79b00&quot;&gt;Dotknięcie&lt;/font&gt;" style="text;html=1;strokeColor=none;fillColor=none;align=center;verticalAlign=middle;whiteSpace=wrap;rounded=0;" parent="1" vertex="1">
          <mxGeometry x="276.88" y="375" width="60" height="30" as="geometry" />
        </mxCell>
        <mxCell id="p0aysY3lliT1-a4iwBMf-15" value="" style="ellipse;html=1;shape=endState;fillColor=strokeColor;" parent="1" vertex="1">
          <mxGeometry x="384.01" y="560" width="30" height="30" as="geometry" />
        </mxCell>
        <mxCell id="9E5FCg3P2HuE8xPcznS2-8" style="edgeStyle=orthogonalEdgeStyle;rounded=0;orthogonalLoop=1;jettySize=auto;html=1;entryX=0;entryY=0.5;entryDx=0;entryDy=0;endArrow=open;endFill=0;strokeColor=#D79B00;" edge="1" parent="1" source="p0aysY3lliT1-a4iwBMf-21" target="p0aysY3lliT1-a4iwBMf-15">
          <mxGeometry relative="1" as="geometry">
            <Array as="points">
              <mxPoint x="200" y="575" />
            </Array>
          </mxGeometry>
        </mxCell>
        <mxCell id="p0aysY3lliT1-a4iwBMf-21" value="Widok z kamery aparatu" style="rounded=1;whiteSpace=wrap;html=1;fillColor=#dae8fc;strokeColor=#6c8ebf;" parent="1" vertex="1">
          <mxGeometry x="130" y="390" width="140" height="30" as="geometry" />
        </mxCell>
        <mxCell id="9E5FCg3P2HuE8xPcznS2-10" style="edgeStyle=orthogonalEdgeStyle;rounded=0;orthogonalLoop=1;jettySize=auto;html=1;entryX=0.5;entryY=0;entryDx=0;entryDy=0;endArrow=open;endFill=0;strokeColor=#D79B00;" edge="1" parent="1" source="9E5FCg3P2HuE8xPcznS2-1" target="p0aysY3lliT1-a4iwBMf-15">
          <mxGeometry relative="1" as="geometry" />
        </mxCell>
        <mxCell id="9E5FCg3P2HuE8xPcznS2-1" value="Widok głębokości" style="rounded=1;whiteSpace=wrap;html=1;fillColor=#dae8fc;strokeColor=#6c8ebf;" vertex="1" parent="1">
          <mxGeometry x="329" y="480" width="140" height="30" as="geometry" />
        </mxCell>
        <mxCell id="9E5FCg3P2HuE8xPcznS2-6" value="&lt;font color=&quot;#d79b00&quot;&gt;Dotknięcie&lt;/font&gt;" style="text;html=1;strokeColor=none;fillColor=none;align=center;verticalAlign=middle;whiteSpace=wrap;rounded=0;" vertex="1" parent="1">
          <mxGeometry x="461.13" y="375" width="60" height="30" as="geometry" />
        </mxCell>
        <mxCell id="9E5FCg3P2HuE8xPcznS2-7" value="&lt;font color=&quot;#d79b00&quot;&gt;Dotknięcie&lt;/font&gt;" style="text;html=1;strokeColor=none;fillColor=none;align=center;verticalAlign=middle;whiteSpace=wrap;rounded=0;" vertex="1" parent="1">
          <mxGeometry x="401.13" y="435" width="60" height="30" as="geometry" />
        </mxCell>
      </root>
    </mxGraphModel>
  </diagram>
</mxfile>
